<svg xmlns="http://www.w3.org/2000/svg" xmlns:xlink="http://www.w3.org/1999/xlink" width="192" height="192" viewBox="0 0 192 192"><defs><filter id="a" x="0.097" y="-9.15" width="192.556" height="215.383" filterUnits="userSpaceOnUse"><feOffset dy="3" input="SourceAlpha"/><feGaussianBlur stdDeviation="8" result="b"/><feFlood flood-opacity="0.31"/><feComposite operator="in" in2="b"/><feComposite in="SourceGraphic"/></filter><clipPath id="d"><rect width="192" height="192"/></clipPath></defs><g id="c" clip-path="url(#d)"><g transform="matrix(1, 0, 0, 1, 0, 0)" filter="url(#a)"><path d="M77.114,2a5.707,5.707,0,0,0-2.429.624L8.113,36.528A5.707,5.707,0,0,0,5,41.61v79.084a5.707,5.707,0,0,0,2.608,4.8l66.572,42.975a5.707,5.707,0,0,0,6.2,0l66.572-42.975a5.707,5.707,0,0,0,2.608-4.8V41.61a5.707,5.707,0,0,0-3.113-5.082L79.871,2.626A5.707,5.707,0,0,0,77.114,2Zm.164,12.111,54.84,27.929L112.956,53.632,79.864,36.781a5.726,5.726,0,0,0-5.179,0L41.6,53.632,22.438,42.041Zm0,34.155,24.184,12.319L77.278,75.216,53.094,60.586Zm-60.866,3.47,19.02,11.509v40.879a5.707,5.707,0,0,0,2.608,4.793l33.531,21.643V153.2L16.412,117.588Zm121.731,0v65.851L82.984,153.2V130.561l33.531-21.643a5.707,5.707,0,0,0,2.608-4.792V63.246Zm-91.3,18.411L71.572,85.1v31.874L46.845,101.012Zm60.866,0v30.863L82.984,116.979V85.1Z" transform="translate(19.1 9.85)" fill="#fff"/></g></g></svg>